<svg version="1.0" xmlns="http://www.w3.org/2000/svg"
 width="245.000000pt" height="152.000000pt" viewBox="0 0 245.000000 152.000000"
 preserveAspectRatio="xMidYMid meet">

<g transform="translate(0.000000,152.000000) scale(0.100000,-0.100000)"
fill="#FF3131" stroke="none">
<path d="M458 1375 c-93 -25 -180 -103 -214 -191 -18 -45 -19 -79 -19 -439 l0
-390 28 -56 c32 -66 99 -132 165 -162 47 -22 53 -22 776 -25 643 -2 735 -1
784 13 99 29 173 93 216 184 20 44 21 61 21 431 0 344 -2 390 -18 436 -20 59
-73 125 -127 159 -88 55 -84 55 -854 54 -548 -1 -722 -4 -758 -14z m848 -424
c181 -103 329 -192 331 -197 2 -8 -654 -394 -670 -394 -4 0 -7 176 -7 390 0
230 4 390 9 390 5 0 157 -85 337 -189z"/>
</g>
</svg>
